<svg width="50" height="50" viewBox="0 0 50 50" fill="none" xmlns="http://www.w3.org/2000/svg">
<path d="M24.9861 50C38.7856 50 49.9722 38.8071 49.9722 25C49.9722 11.1929 38.7856 0 24.9861 0C11.1867 0 0 11.1929 0 25C0 38.8071 11.1867 50 24.9861 50Z" fill="#FDB128"/>
<mask id="mask0" mask-type="alpha" maskUnits="userSpaceOnUse" x="0" y="0" width="50" height="50">
<path fill-rule="evenodd" clip-rule="evenodd" d="M24.9861 50C38.7856 50 49.9722 38.8071 49.9722 25C49.9722 11.1929 38.7856 0 24.9861 0C11.1867 0 0 11.1929 0 25C0 38.8071 11.1867 50 24.9861 50Z" fill="white"/>
</mask>
<g mask="url(#mask0)">
<path d="M33.7765 16.7606C34.0158 16.7606 34.225 16.9558 34.2435 17.1964L34.7703 24.0242C34.7889 24.2648 34.5973 24.46 34.3426 24.46H32.7278L34.2562 49.592C34.2708 49.8326 34.0345 50.0278 33.7285 50.0278H16.2715C15.9654 50.0278 15.7291 49.8326 15.7438 49.592L17.2721 24.46H15.6574C15.4026 24.46 15.2111 24.2648 15.2296 24.0242L15.7564 17.1964C15.775 16.9558 15.9841 16.7606 16.2234 16.7606H18.0293C18.2686 16.7606 18.452 16.9558 18.4389 17.1964L18.3354 19.085H19.9541L20.0324 17.1964C20.0424 16.9558 20.2445 16.7606 20.4839 16.7606H23.7005C23.9398 16.7606 24.1325 16.9558 24.1307 17.1964L24.117 19.085H25.7356L25.7242 17.1964C25.7228 16.9558 25.9157 16.7606 26.155 16.7606H29.3716C29.6109 16.7606 29.8129 16.9558 29.8226 17.1964L29.8986 19.085H31.5172L31.4161 17.1964C31.4032 16.9558 31.5868 16.7606 31.8261 16.7606H33.7765Z" fill="white"/>
</g>
<mask id="mask1" mask-type="alpha" maskUnits="userSpaceOnUse" x="0" y="0" width="50" height="50">
<path fill-rule="evenodd" clip-rule="evenodd" d="M24.9861 50C38.7856 50 49.9722 38.8071 49.9722 25C49.9722 11.1929 38.7856 0 24.9861 0C11.1867 0 0 11.1929 0 25C0 38.8071 11.1867 50 24.9861 50Z" fill="white"/>
</mask>
<g mask="url(#mask1)">
<path d="M27.4083 40.9788C27.4083 41.9093 26.3304 42.6633 24.9993 42.6633C23.6686 42.6633 22.5889 41.9093 22.5889 40.9788C22.5889 40.7971 23.9258 35.4694 23.9258 35.4694C23.1841 35.0795 22.6732 34.3067 22.6732 33.4063C22.6732 32.1135 23.7133 31.0663 25.0044 31.0663C26.2923 31.0663 27.3317 32.1139 27.3317 33.4063C27.3317 34.3067 26.8219 35.0799 26.0797 35.4694C26.0797 35.4694 27.3984 40.786 27.4031 40.9423L27.4112 40.9788H27.4083Z" fill="#FDB128"/>
</g>
</svg>
