<svg width="194" height="48" viewBox="0 0 194 48" fill="none" xmlns="http://www.w3.org/2000/svg">
<path d="M29.4609 32.8899C27.229 35.4596 24.1797 36.9881 20.8573 37.1979C13.8931 37.6367 7.88623 32.0729 7.46634 24.796C7.04646 17.5185 12.3702 11.2409 19.3344 10.8021C21.3369 10.6762 23.2631 11.1234 25.086 11.8427C28.0418 13.0091 33.424 8.28457 33.424 8.28457C29.4064 4.56401 24.2439 2.70103 18.8864 3.0391C7.826 3.73562 -0.630201 13.7063 0.0369102 25.2636C0.704022 36.822 10.2443 45.658 21.3053 44.9615C26.469 44.636 31.2179 42.3019 34.7433 38.3769L29.4609 32.8899ZM25.8409 26.7465C25.7256 27.7595 26.695 28.929 28.3103 28.8768L33.4481 34.2452L33.4573 34.2542L33.4607 34.2584L33.4699 34.2679L38.6078 39.6357C38.5573 41.323 39.6758 42.3379 40.647 42.2174C41.7689 42.0783 42.6873 40.6757 41.3841 39.315C41.0714 38.9871 37.0705 34.79 37.0705 34.79C37.0705 34.79 41.8229 28.3439 43.7789 26.005C44.2665 25.423 44.3967 25.1886 45.0282 25.1215C45.794 25.04 46.8041 25.2204 47.5424 24.1367C48.2829 23.0523 48.0575 21.8031 47.3462 21.0731C46.4835 20.1871 44.894 20.081 43.7743 21.0886C42.9982 21.7864 32.9491 30.4833 32.9491 30.4833C32.9491 30.4833 28.9321 26.3023 28.6183 25.9757C27.3151 24.6144 25.9739 25.5735 25.8409 26.7465Z" fill="#FBB03B"/>
<path d="M77.5057 27.71C78.0353 27.71 78.503 27.6468 78.9116 27.5205C79.3193 27.3922 79.6998 27.262 80.0523 27.1317C80.2062 27.0637 80.3166 27.0501 80.3824 27.088C80.4483 27.1278 80.5093 27.2075 80.5645 27.329L81.1271 28.5236C81.2045 28.6781 81.2316 28.7938 81.2094 28.8715C81.189 28.9493 81.1271 29.0144 81.0273 29.0708C80.4318 29.4353 79.8063 29.6822 79.1508 29.8095C78.4953 29.9368 77.8465 29.999 77.2084 29.999C76.304 29.999 75.5246 29.8639 74.8681 29.5927C74.2125 29.3235 73.6722 28.9318 73.2481 28.4235C72.824 27.9151 72.5093 27.2921 72.306 26.5553C72.1017 25.8205 72 24.9934 72 24.0748C72 23.166 72.1298 22.3438 72.3883 21.6021C72.6478 20.8596 73.009 20.2239 73.4718 19.6932C73.9356 19.1605 74.4943 18.7523 75.1498 18.4636C75.8054 18.1769 76.5306 18.0331 77.3236 18.0331C77.8862 18.0331 78.4372 18.0807 78.9775 18.175C79.5178 18.2683 80.0464 18.4597 80.5645 18.7465C80.6855 18.8126 80.7572 18.8796 80.7794 18.9457C80.8007 19.0118 80.7736 19.1392 80.6971 19.3287L80.1849 20.4727C80.1287 20.6282 80.0716 20.7225 80.0106 20.7555C79.9496 20.7886 79.8431 20.7769 79.6882 20.7225C79.2912 20.5796 78.9213 20.4708 78.5805 20.3988C78.2387 20.3269 77.8581 20.2909 77.4389 20.2909C76.9876 20.2909 76.5877 20.3901 76.2401 20.5835C75.8935 20.7769 75.6011 21.0423 75.3638 21.3786C75.1266 21.7168 74.9475 22.1153 74.8264 22.5731C74.7054 23.0329 74.6444 23.5335 74.6444 24.0758C74.6444 24.6182 74.6909 25.109 74.7848 25.5542C74.8787 25.9964 75.0385 26.3794 75.2651 26.6992C75.4907 27.0199 75.786 27.2697 76.1501 27.4466C76.5141 27.6206 76.9654 27.71 77.5057 27.71ZM92.7765 23.9757C92.7765 24.9273 92.6748 25.7758 92.4705 26.5145C92.2662 27.2581 91.9496 27.8869 91.5197 28.4069C91.0897 28.9269 90.5504 29.3225 89.8997 29.5937C89.249 29.8649 88.4783 30 87.5845 30C85.8755 30 84.6051 29.481 83.7734 28.441C82.9416 27.4009 82.5243 25.9294 82.5243 24.0243C82.5243 23.0961 82.6434 22.2582 82.8806 21.5108C83.1178 20.7624 83.4558 20.1325 83.8973 19.6193C84.3379 19.1051 84.8724 18.7086 85.5008 18.4316C86.1292 18.1555 86.8399 18.0175 87.6339 18.0175C88.4938 18.0175 89.2461 18.1555 89.891 18.4316C90.5359 18.7086 91.0704 19.1032 91.4945 19.6193C91.9186 20.1325 92.2391 20.7594 92.4531 21.4952C92.669 22.231 92.7765 23.0572 92.7765 23.9757ZM90.1476 24.0253C90.1476 23.5276 90.1118 23.0514 90.0401 22.5974C89.9685 22.1435 89.8387 21.745 89.6509 21.4029C89.464 21.0598 89.2103 20.7866 88.8908 20.5816C88.5703 20.3765 88.1578 20.2754 87.6504 20.2754C87.2311 20.2754 86.8651 20.3736 86.5504 20.567C86.2367 20.7594 85.9743 21.0228 85.7651 21.3553C85.556 21.6877 85.402 22.0745 85.3023 22.5168C85.2026 22.959 85.1532 23.4285 85.1532 23.9271C85.1532 24.5142 85.1938 25.04 85.2771 25.5036C85.3594 25.9682 85.4979 26.3668 85.6906 26.6982C85.8833 27.0306 86.1389 27.2853 86.4594 27.4612C86.7789 27.64 87.1808 27.7266 87.6659 27.7266C88.1403 27.7266 88.5364 27.6245 88.8569 27.4194C89.1764 27.2163 89.4291 26.9451 89.6179 26.6068C89.8048 26.2686 89.9404 25.8759 90.0227 25.4278C90.105 24.9797 90.1476 24.5122 90.1476 24.0253ZM94.7237 21.3698C94.7237 20.9043 94.8041 20.4678 94.9638 20.0586C95.1236 19.6485 95.3637 19.2927 95.6833 18.9856C96.0028 18.6814 96.4105 18.4413 96.9072 18.2644C97.403 18.0875 97.9878 18 98.6608 18C98.9687 18 99.2911 18.0185 99.6281 18.0505C99.965 18.0836 100.294 18.1332 100.621 18.1993C100.945 18.2644 101.257 18.346 101.555 18.4393C101.852 18.5346 102.122 18.6425 102.364 18.764C102.497 18.8281 102.571 18.8942 102.587 18.9535C102.605 19.0147 102.584 19.1285 102.529 19.2947L102.099 20.5388C102.044 20.6943 101.99 20.7818 101.935 20.8041C101.879 20.8246 101.785 20.8197 101.653 20.7867C101.135 20.6321 100.62 20.5038 100.106 20.4047C99.5942 20.3036 99.112 20.255 98.6598 20.255C98.1747 20.255 97.8329 20.3444 97.6344 20.5203C97.4359 20.6963 97.3361 20.912 97.3361 21.1667C97.3361 21.3105 97.3691 21.4437 97.4359 21.5652C97.5027 21.6867 97.6102 21.8053 97.7583 21.9219C97.9074 22.0366 98.105 22.1562 98.3538 22.2777C98.6017 22.3992 98.9077 22.5333 99.2708 22.6762C99.8333 22.8978 100.351 23.1223 100.825 23.3468C101.298 23.5733 101.703 23.8309 102.04 24.1186C102.376 24.4073 102.64 24.7455 102.834 25.1314C103.027 25.5172 103.124 25.9838 103.124 26.5262C103.124 27.1132 103.018 27.6216 102.809 28.0531C102.6 28.4837 102.307 28.8434 101.933 29.1311C101.558 29.4197 101.103 29.6355 100.568 29.7784C100.034 29.9213 99.446 29.9942 98.807 29.9942C98.4545 29.9942 98.0846 29.9747 97.6992 29.9358C97.3139 29.8979 96.9304 29.8357 96.5499 29.7531C96.1694 29.6705 95.7975 29.5636 95.4335 29.4304C95.0704 29.2973 94.7334 29.1369 94.4255 28.9503C94.3374 28.8939 94.2841 28.8346 94.2676 28.7675C94.2512 28.7024 94.2696 28.5955 94.3257 28.4526L94.8883 27.1268C94.9435 26.9917 95.0045 26.915 95.0704 26.8936C95.1362 26.8722 95.2311 26.8877 95.3521 26.9441C95.5729 27.0326 95.815 27.1259 96.0793 27.2182C96.3436 27.3125 96.6167 27.3951 96.8975 27.467C97.1783 27.539 97.4649 27.6002 97.7573 27.6498C98.0498 27.7013 98.3393 27.7246 98.6249 27.7246C98.9667 27.7246 99.2533 27.6916 99.4848 27.6245C99.7162 27.5584 99.904 27.4729 100.047 27.3659C100.191 27.259 100.289 27.1405 100.345 27.0005C100.4 26.8615 100.427 26.7157 100.427 26.5612C100.427 26.3959 100.397 26.2462 100.336 26.1131C100.275 25.9799 100.176 25.8497 100.038 25.7243C99.9002 25.597 99.7133 25.4735 99.476 25.3578C99.2378 25.2432 98.9435 25.1178 98.591 24.9856C98.0072 24.763 97.4775 24.5375 97.004 24.3042C96.5305 24.0729 96.1219 23.8144 95.7801 23.5335C95.4383 23.2506 95.1769 22.9367 94.9948 22.5858C94.8147 22.2407 94.7237 21.8344 94.7237 21.3698ZM105.306 21.3698C105.306 20.9043 105.385 20.4678 105.546 20.0586C105.706 19.6485 105.945 19.2927 106.266 18.9856C106.585 18.6814 106.993 18.4413 107.49 18.2644C107.985 18.0875 108.569 18 109.241 18C109.55 18 109.873 18.0185 110.209 18.0505C110.545 18.0836 110.876 18.1332 111.201 18.1993C111.526 18.2644 111.838 18.346 112.136 18.4393C112.435 18.5346 112.704 18.6425 112.946 18.764C113.078 18.8281 113.152 18.8942 113.169 18.9535C113.186 19.0147 113.167 19.1285 113.111 19.2947L112.681 20.5388C112.625 20.6943 112.571 20.7818 112.515 20.8041C112.46 20.8246 112.368 20.8197 112.234 20.7867C111.715 20.6321 111.2 20.5038 110.688 20.4047C110.176 20.3036 109.693 20.255 109.24 20.255C108.755 20.255 108.414 20.3444 108.216 20.5203C108.017 20.6963 107.918 20.912 107.918 21.1667C107.918 21.3105 107.95 21.4437 108.017 21.5652C108.084 21.6867 108.191 21.8053 108.34 21.9219C108.489 22.0366 108.687 22.1562 108.935 22.2777C109.183 22.3992 109.489 22.5333 109.853 22.6762C110.416 22.8978 110.933 23.1223 111.406 23.3468C111.88 23.5733 112.285 23.8309 112.621 24.1186C112.957 24.4073 113.222 24.7455 113.415 25.1314C113.607 25.5172 113.705 25.9838 113.705 26.5262C113.705 27.1132 113.599 27.6216 113.389 28.0531C113.18 28.4837 112.888 28.8434 112.513 29.1311C112.139 29.4197 111.684 29.6355 111.15 29.7784C110.615 29.9213 110.027 29.9942 109.389 29.9942C109.036 29.9942 108.667 29.9747 108.28 29.9358C107.894 29.8979 107.512 29.8357 107.13 29.7531C106.75 29.6705 106.379 29.5636 106.015 29.4304C105.651 29.2973 105.314 29.1369 105.006 28.9503C104.918 28.8939 104.865 28.8346 104.849 28.7675C104.833 28.7024 104.851 28.5955 104.907 28.4526L105.47 27.1268C105.525 26.9917 105.585 26.915 105.652 26.8936C105.718 26.8722 105.812 26.8877 105.933 26.9441C106.153 27.0326 106.396 27.1259 106.66 27.2182C106.925 27.3125 107.197 27.3951 107.478 27.467C107.76 27.539 108.045 27.6002 108.338 27.6498C108.629 27.7013 108.919 27.7246 109.205 27.7246C109.547 27.7246 109.833 27.6916 110.065 27.6245C110.298 27.5584 110.484 27.4729 110.628 27.3659C110.771 27.259 110.87 27.1405 110.926 27.0005C110.98 26.8615 111.008 26.7157 111.008 26.5612C111.008 26.3959 110.978 26.2462 110.917 26.1131C110.856 25.9799 110.758 25.8497 110.62 25.7243C110.483 25.597 110.296 25.4735 110.057 25.3578C109.821 25.2432 109.526 25.1178 109.173 24.9856C108.589 24.763 108.06 24.5375 107.585 24.3042C107.112 24.0729 106.703 23.8144 106.362 23.5335C106.021 23.2506 105.758 22.9367 105.577 22.5858C105.397 22.2407 105.306 21.8344 105.306 21.3698ZM122.153 27.3941H118.367L117.722 29.5023C117.689 29.6112 117.642 29.6929 117.582 29.7434C117.521 29.793 117.414 29.8173 117.26 29.8173H115.324C115.203 29.8173 115.127 29.7842 115.1 29.7162C115.073 29.6491 115.07 29.5743 115.094 29.4839L118.532 19.0769C118.587 18.8913 118.651 18.7368 118.723 18.6211C118.794 18.5054 118.876 18.4141 118.971 18.348C119.064 18.2819 119.175 18.2352 119.301 18.2061C119.428 18.1788 119.574 18.1643 119.739 18.1643H120.731C120.918 18.1643 121.078 18.173 121.211 18.1895C121.343 18.2061 121.459 18.2479 121.558 18.313C121.657 18.3791 121.742 18.4743 121.813 18.5958C121.886 18.7173 121.955 18.8767 122.021 19.076L125.459 29.4829C125.481 29.548 125.481 29.6229 125.459 29.6997C125.438 29.7764 125.365 29.8153 125.244 29.8153H123.277C123.155 29.8153 123.054 29.8017 122.971 29.7735C122.888 29.7473 122.83 29.6715 122.797 29.55L122.153 27.3941ZM118.964 25.354H121.56L120.932 23.237L120.319 20.8566H120.22L119.592 23.237L118.964 25.354ZM132.514 27.71C133.044 27.71 133.512 27.6468 133.92 27.5205C134.328 27.3922 134.707 27.262 135.061 27.1317C135.214 27.0637 135.324 27.0501 135.391 27.088C135.457 27.1278 135.519 27.2075 135.573 27.329L136.136 28.5236C136.212 28.6781 136.239 28.7938 136.218 28.8715C136.196 28.9493 136.136 29.0144 136.036 29.0708C135.44 29.4353 134.814 29.6822 134.159 29.8095C133.503 29.9368 132.855 29.999 132.217 29.999C131.312 29.999 130.532 29.8639 129.877 29.5927C129.22 29.3235 128.68 28.9318 128.256 28.4235C127.831 27.9151 127.518 27.2921 127.314 26.5553C127.111 25.8195 127.008 24.9934 127.008 24.0739C127.008 23.166 127.137 22.3428 127.397 21.6012C127.655 20.8596 128.017 20.2229 128.479 19.6922C128.943 19.1605 129.502 18.7504 130.157 18.4636C130.813 18.175 131.538 18.0321 132.331 18.0321C132.894 18.0321 133.444 18.0797 133.985 18.174C134.525 18.2692 135.054 18.4588 135.572 18.7474C135.693 18.8126 135.764 18.8806 135.788 18.9467C135.808 19.0118 135.782 19.1392 135.704 19.3287L135.192 20.4737C135.137 20.6292 135.081 20.7235 135.019 20.7565C134.957 20.7896 134.85 20.7769 134.696 20.7235C134.299 20.5806 133.93 20.4717 133.588 20.3998C133.245 20.3279 132.865 20.2919 132.446 20.2919C131.994 20.2919 131.595 20.3911 131.247 20.5845C130.9 20.7779 130.608 21.0433 130.371 21.3796C130.134 21.7178 129.955 22.1163 129.834 22.5741C129.713 23.0339 129.652 23.5344 129.652 24.0768C129.652 24.6191 129.698 25.11 129.792 25.5552C129.886 25.9974 130.047 26.3804 130.272 26.7001C130.498 27.0209 130.793 27.2707 131.157 27.4476C131.521 27.6206 131.974 27.71 132.514 27.71ZM144.088 22.4147L147.941 29.4022C148.017 29.5237 148.039 29.6248 148.006 29.7016C147.973 29.7784 147.897 29.8173 147.775 29.8173H145.857C145.627 29.8173 145.458 29.8027 145.352 29.7764C145.248 29.7492 145.14 29.6345 145.03 29.4343L142.368 24.4724L140.616 26.5806V29.4693C140.616 29.6248 140.593 29.722 140.55 29.7599C140.505 29.7998 140.401 29.8192 140.236 29.8192H138.499C138.366 29.8192 138.271 29.7949 138.21 29.7453C138.149 29.6938 138.118 29.6034 138.118 29.4712V18.5482C138.118 18.416 138.147 18.3256 138.21 18.276C138.271 18.2255 138.366 18.2012 138.499 18.2012H140.236C140.401 18.2012 140.505 18.2216 140.55 18.2605C140.593 18.2984 140.616 18.3956 140.616 18.5511V22.9989L140.681 23.0309L142.235 21.0569L144.302 18.4675C144.403 18.3577 144.5 18.2848 144.601 18.2517C144.701 18.2187 144.86 18.2012 145.079 18.2012H147.212C147.312 18.2012 147.381 18.2313 147.419 18.2926C147.458 18.3538 147.439 18.4296 147.361 18.5161L144.088 22.4147ZM185.603 21.3698C185.603 20.9043 185.683 20.4678 185.844 20.0586C186.002 19.6485 186.242 19.2927 186.564 18.9875C186.881 18.6833 187.29 18.4413 187.787 18.2644C188.283 18.0875 188.865 18 189.539 18C189.847 18 190.17 18.0185 190.507 18.0505C190.844 18.0836 191.174 18.1341 191.498 18.1993C191.823 18.2644 192.135 18.346 192.433 18.4393C192.732 18.5346 193 18.6425 193.243 18.764C193.376 18.8281 193.45 18.8952 193.465 18.9535C193.483 19.0147 193.463 19.1285 193.406 19.2947L192.978 20.5388C192.922 20.6943 192.868 20.7818 192.812 20.8041C192.757 20.8255 192.664 20.8197 192.53 20.7867C192.014 20.6321 191.498 20.5048 190.984 20.4047C190.471 20.3036 189.99 20.255 189.538 20.255C189.054 20.255 188.711 20.3444 188.513 20.5203C188.314 20.6972 188.214 20.913 188.214 21.1667C188.214 21.3105 188.247 21.4437 188.314 21.5652C188.381 21.6867 188.489 21.8053 188.637 21.9219C188.785 22.0366 188.983 22.1562 189.232 22.2777C189.479 22.3992 189.785 22.5333 190.148 22.6762C190.71 22.8978 191.228 23.1223 191.702 23.3478C192.175 23.5733 192.58 23.8318 192.917 24.1186C193.253 24.4073 193.518 24.7455 193.71 25.1323C193.903 25.5172 194 25.9838 194 26.5262C194 27.1132 193.894 27.6216 193.686 28.0531C193.476 28.4837 193.183 28.8434 192.811 29.1311C192.434 29.4197 191.982 29.6355 191.446 29.7784C190.91 29.9213 190.326 29.9942 189.687 29.9942C189.334 29.9942 188.964 29.9747 188.578 29.9358C188.193 29.8979 187.81 29.8357 187.428 29.7531C187.047 29.6715 186.677 29.5636 186.314 29.4304C185.949 29.2973 185.612 29.1369 185.304 28.9503C185.215 28.8939 185.162 28.8346 185.147 28.7675C185.13 28.7024 185.151 28.5955 185.206 28.4536L185.768 27.1268C185.824 26.9927 185.884 26.915 185.95 26.8936C186.016 26.8722 186.11 26.8877 186.231 26.9441C186.453 27.0326 186.694 27.1259 186.96 27.2182C187.223 27.3125 187.497 27.3951 187.779 27.467C188.059 27.539 188.346 27.6002 188.639 27.6498C188.931 27.7013 189.221 27.7246 189.506 27.7246C189.848 27.7246 190.134 27.6916 190.367 27.6245C190.597 27.5584 190.786 27.4729 190.929 27.3659C191.072 27.2619 191.172 27.1405 191.227 27.0005C191.283 26.8615 191.31 26.7157 191.31 26.5612C191.31 26.3959 191.279 26.2462 191.218 26.1131C191.157 25.9799 191.059 25.8497 190.921 25.7243C190.782 25.597 190.594 25.4735 190.359 25.3578C190.121 25.2432 189.826 25.1168 189.474 24.9856C188.889 24.763 188.361 24.5375 187.885 24.3042C187.413 24.0729 187.004 23.8144 186.662 23.5335C186.32 23.2506 186.057 22.9367 185.876 22.5858C185.695 22.2407 185.603 21.8344 185.603 21.3698ZM182.262 23.4606C182.569 23.583 182.839 23.7453 183.064 23.9504C183.29 24.1555 183.475 24.381 183.617 24.6298C183.759 24.8796 183.867 25.1479 183.931 25.4346C183.997 25.7233 184.032 26.0062 184.032 26.2812C184.032 26.8129 183.93 27.295 183.727 27.7246C183.522 28.1562 183.24 28.5275 182.884 28.8385C182.527 29.1476 182.106 29.3877 181.626 29.5597C181.148 29.7308 180.632 29.8163 180.08 29.8163H175.93C175.534 29.8163 175.268 29.7376 175.138 29.5772C175.004 29.4168 174.939 29.1592 174.939 28.8054V19.2121C174.939 18.8583 175.004 18.5968 175.138 18.4316C175.269 18.2644 175.534 18.1827 175.93 18.1827H179.981C180.479 18.1827 180.943 18.2381 181.378 18.348C181.813 18.4578 182.191 18.6328 182.511 18.8699C182.83 19.109 183.083 19.4142 183.264 19.7816C183.446 20.1539 183.536 20.5981 183.536 21.1181C183.536 21.5827 183.417 22.0181 183.178 22.4225C182.943 22.8259 182.635 23.133 182.262 23.3429V23.4606ZM177.45 22.5819H179.698C179.831 22.5819 179.971 22.5644 180.122 22.5323C180.27 22.4993 180.404 22.441 180.525 22.3574C180.647 22.2757 180.747 22.16 180.825 22.0133C180.902 21.8646 180.94 21.676 180.94 21.4447C180.94 21.1152 180.836 20.8576 180.626 20.67C180.416 20.4834 180.135 20.3901 179.785 20.3901H177.453V22.5819H177.45ZM181.437 26.117C181.437 25.6747 181.3 25.3161 181.03 25.039C180.762 24.763 180.362 24.625 179.833 24.625H177.452V27.5953H179.833C180.141 27.5953 180.4 27.5487 180.611 27.4534C180.82 27.3591 180.985 27.2396 181.106 27.0967C181.227 26.9538 181.313 26.7925 181.364 26.6166C181.41 26.4377 181.437 26.2715 181.437 26.117ZM170.011 27.3941H166.225L165.58 29.5023C165.546 29.6112 165.499 29.6929 165.439 29.7434C165.378 29.7939 165.27 29.8173 165.117 29.8173H163.181C163.06 29.8173 162.987 29.7842 162.96 29.7162C162.934 29.6511 162.928 29.5743 162.952 29.4839L166.39 19.0769C166.446 18.8913 166.507 18.7368 166.579 18.6211C166.651 18.5054 166.734 18.4141 166.829 18.348C166.922 18.2828 167.033 18.2352 167.16 18.2061C167.285 18.1788 167.432 18.1643 167.597 18.1643H168.589C168.774 18.1643 168.935 18.173 169.068 18.1895C169.201 18.2061 169.316 18.2479 169.413 18.313C169.514 18.3791 169.598 18.4743 169.671 18.5958C169.743 18.7173 169.812 18.8767 169.878 19.076L173.317 29.4829C173.34 29.549 173.34 29.6229 173.317 29.6997C173.297 29.7764 173.224 29.8153 173.102 29.8153H171.135C171.014 29.8153 170.912 29.8017 170.831 29.7735C170.748 29.7473 170.69 29.6724 170.657 29.5509L170.011 27.3941ZM166.819 25.354H169.415L168.788 23.2389L168.176 20.8566H168.076L167.449 23.2389L166.819 25.354ZM156.309 29.5529C155.917 29.375 155.605 29.1427 155.374 28.855C155.143 28.5673 154.984 28.2407 154.896 27.8762C154.807 27.5098 154.763 27.1395 154.763 26.7633V18.5307C154.763 18.3975 154.791 18.3071 154.852 18.2576C154.913 18.207 155.011 18.1837 155.143 18.1837H156.896C157.062 18.1837 157.169 18.2041 157.219 18.2488C157.268 18.2926 157.292 18.3868 157.292 18.5307V26.5796C157.292 27.0005 157.394 27.2833 157.598 27.4262C157.803 27.5691 158.069 27.643 158.4 27.643H161.833C161.954 27.643 162.037 27.6624 162.08 27.7023C162.125 27.7402 162.192 27.8315 162.146 27.9929L161.687 29.4703C161.609 29.7327 161.583 29.8182 161.374 29.8182H157.821C157.205 29.8182 156.701 29.7298 156.309 29.5529Z" fill="#333333"/>
</svg>
