<svg width="50" height="50" viewBox="0 0 50 50" fill="none" xmlns="http://www.w3.org/2000/svg">
<path d="M25 50C38.8071 50 50 38.8071 50 25C50 11.1929 38.8071 0 25 0C11.1929 0 0 11.1929 0 25C0 38.8071 11.1929 50 25 50Z" fill="#FDB128"/>
<mask id="mask0" mask-type="alpha" maskUnits="userSpaceOnUse" x="0" y="0" width="50" height="50">
<path fill-rule="evenodd" clip-rule="evenodd" d="M25 50C38.8071 50 50 38.8071 50 25C50 11.1929 38.8071 0 25 0C11.1929 0 0 11.1929 0 25C0 38.8071 11.1929 50 25 50Z" fill="white"/>
</mask>
<g mask="url(#mask0)">
<path d="M42.94 42.2579C33.1769 52.021 17.3478 52.021 7.58466 42.2579C-2.17845 32.4948 -2.17845 16.6657 7.58466 6.90258C17.3478 -2.86052 33.1769 -2.86052 42.94 6.90258C52.7031 16.6657 52.7031 32.4948 42.94 42.2579Z" fill="#FDB128"/>
<path d="M32.7379 22.1054C33.0595 22.1549 33.1876 22.5408 32.9584 22.77L30.9455 24.7829C29.9928 25.7356 29.9901 27.2802 30.9395 28.2296L32.1673 29.4574C33.1167 30.4068 34.6612 30.4041 35.6139 29.4514L37.6268 27.4385C37.856 27.2093 38.242 27.3373 38.2915 27.659C38.5883 29.6607 37.9625 31.7856 36.4152 33.3328C34.8966 34.8515 32.8289 35.4772 30.8558 35.2232C29.9836 35.1103 29.1178 35.405 28.4946 36.0282L13.4804 51.0424C12.3414 52.1814 10.4894 52.1775 9.3544 51.0425C8.21227 49.9003 8.21549 48.0554 9.35445 46.9165L24.3758 31.8951C24.999 31.2719 25.2937 30.4061 25.1808 29.5339C24.9268 27.5608 25.5526 25.4931 27.0712 23.9745C28.6113 22.4344 30.729 21.8014 32.7379 22.1054Z" fill="white"/>
<path fill-rule="evenodd" clip-rule="evenodd" d="M30.0398 13.7983L32.6306 16.3885C33.1129 16.8654 33.8806 16.8654 34.3628 16.3885L36.0899 14.6619C36.567 14.1851 36.567 13.4122 36.0899 12.9352L33.4939 10.3441L35.2263 8.61767L37.8174 11.2076C38.2945 11.6855 39.0675 11.6855 39.5446 11.2076L41.2717 9.48091C41.7489 9.00404 41.7489 8.23147 41.2717 7.7542L38.6806 5.1644C39.6303 4.21548 39.6303 2.66037 38.6806 1.71137C37.7313 0.760923 36.1759 0.760923 35.2262 1.71137L17.6677 19.2596C14.4327 17.5152 10.3197 17.9707 7.58548 20.7035C4.24559 24.0422 4.24559 29.4559 7.58548 32.7944C10.9209 36.1286 16.3363 36.1286 19.6763 32.7944C22.4104 30.0569 22.8683 25.9503 21.1221 22.7118L30.0398 13.7983ZM11.0402 29.3417C9.60882 27.9109 9.60882 25.5877 11.0402 24.1569C12.4668 22.7306 14.7952 22.7306 16.2219 24.1569C17.6485 25.5877 17.6485 27.9109 16.2219 29.3417C14.7951 30.7672 12.4667 30.7672 11.0402 29.3417Z" fill="white"/>
</g>
</svg>
