<svg width="50" height="50" viewBox="0 0 50 50" fill="none" xmlns="http://www.w3.org/2000/svg">
<path d="M25 50C38.8071 50 50 38.8071 50 25C50 11.1929 38.8071 0 25 0C11.1929 0 0 11.1929 0 25C0 38.8071 11.1929 50 25 50Z" fill="#D8D8D8"/>
<mask id="mask0" mask-type="alpha" maskUnits="userSpaceOnUse" x="0" y="0" width="50" height="50">
<path fill-rule="evenodd" clip-rule="evenodd" d="M25 50C38.8071 50 50 38.8071 50 25C50 11.1929 38.8071 0 25 0C11.1929 0 0 11.1929 0 25C0 38.8071 11.1929 50 25 50Z" fill="white"/>
</mask>
<g mask="url(#mask0)">
<path d="M25 50C38.8071 50 50 38.8071 50 25C50 11.1929 38.8071 0 25 0C11.1929 0 0 11.1929 0 25C0 38.8071 11.1929 50 25 50Z" fill="#FDB128"/>
<path fill-rule="evenodd" clip-rule="evenodd" d="M-6.1261 18.6766C-6.1261 19.048 -5.82399 19.3501 -5.45275 19.3501H3.0677C3.43894 19.3501 3.74105 19.048 3.74105 18.6766V16.3492C3.74105 15.9778 3.43894 15.6757 3.0677 15.6757H-5.45275C-5.82399 15.6757 -6.1261 15.9778 -6.1261 16.3492V18.6766ZM14.955 18.6766C14.955 19.048 14.6528 19.3501 14.2816 19.3501H5.76115C5.38991 19.3501 5.0878 19.048 5.0878 18.6766V16.3492C5.0878 15.9778 5.38991 15.6757 5.76115 15.6757H14.2816C14.6528 15.6757 14.955 15.9778 14.955 16.3492V18.6766ZM8.67463 24.3715C9.04587 24.3715 9.34798 24.0693 9.34798 23.698V21.3707C9.34798 20.9992 9.04587 20.6971 8.67463 20.6971H0.154182C-0.217056 20.6971 -0.519165 20.9992 -0.519165 21.3707V23.6981C-0.519165 24.0694 -0.217056 24.3716 0.154182 24.3716H8.67463V24.3715ZM-1.86588 23.698C-1.86588 24.0694 -2.1679 24.3715 -2.53923 24.3715V24.3716H-5.40356C-5.77489 24.3716 -6.0769 24.0695 -6.0769 23.6981V21.3707C-6.0769 20.9992 -5.77489 20.6971 -5.40356 20.6971H-2.53923C-2.1679 20.6971 -1.86588 20.9992 -1.86588 21.3707V23.698ZM14.2324 24.3715C14.6037 24.3715 14.9057 24.0694 14.9057 23.698V21.3707C14.9057 20.9992 14.6037 20.6971 14.2324 20.6971H11.368C10.9967 20.6971 10.6947 20.9992 10.6947 21.3707V23.6981C10.6947 24.0695 10.9967 24.3716 11.368 24.3716H14.2324V24.3715ZM3.74105 28.7194C3.74105 29.0909 3.43894 29.3929 3.0677 29.3929H-5.45275C-5.82399 29.3929 -6.1261 29.0909 -6.1261 28.7194V26.392C-6.1261 26.0207 -5.82399 25.7185 -5.45275 25.7185H3.0677C3.43894 25.7185 3.74105 26.0207 3.74105 26.392V28.7194ZM14.2816 29.3929C14.6528 29.3929 14.9549 29.0909 14.9549 28.7194V26.392C14.9549 26.0207 14.6528 25.7185 14.2816 25.7185H5.76112C5.38988 25.7185 5.08777 26.0207 5.08777 26.392V28.7194C5.08777 29.0909 5.38988 29.3929 5.76112 29.3929H14.2816ZM9.34798 33.7409C9.34798 34.1123 9.04587 34.4144 8.67463 34.4144H0.154182C-0.217056 34.4144 -0.519165 34.1123 -0.519165 33.7409V31.4135C-0.519165 31.0421 -0.217056 30.74 0.154182 30.74H8.67463C9.04587 30.74 9.34798 31.0421 9.34798 31.4135V33.7409ZM-2.53923 34.4144C-2.1679 34.4144 -1.86588 34.1123 -1.86588 33.7409V31.4135C-1.86588 31.0421 -2.1679 30.74 -2.53923 30.74H-5.40356C-5.77489 30.74 -6.0769 31.0421 -6.0769 31.4135V33.7409C-6.0769 34.1123 -5.77489 34.4144 -5.40356 34.4144H-2.53923ZM14.9057 33.7409C14.9057 34.1123 14.6037 34.4144 14.2324 34.4144H11.368C10.9967 34.4144 10.6947 34.1123 10.6947 33.7409V31.4135C10.6947 31.0421 10.9967 30.74 11.368 30.74H14.2324C14.6037 30.74 14.9057 31.0421 14.9057 31.4135V33.7409Z" fill="white"/>
<path fill-rule="evenodd" clip-rule="evenodd" d="M16.036 27.0085V23.2617C16.036 22.9523 16.1345 22.6677 16.298 22.4324H34.6028C34.7663 22.6677 34.8648 22.952 34.8648 23.2617V27.0089C34.8648 27.3183 34.7663 27.6028 34.6025 27.8378H16.298C16.1345 27.6025 16.036 27.3183 16.036 27.0085ZM32.6682 25.6123C32.6682 25.4368 32.5276 25.2943 32.3543 25.2943C32.1811 25.2943 32.0405 25.4368 32.0405 25.6123C32.0405 25.7879 32.1811 25.9303 32.3543 25.9303C32.5276 25.9303 32.6682 25.7879 32.6682 25.6123ZM31.7268 24.3404C31.9 24.3404 32.0406 24.4829 32.0406 24.6584C32.0406 24.8339 31.9 24.9764 31.7268 24.9764C31.5536 24.9764 31.413 24.8339 31.413 24.6584C31.413 24.4829 31.5536 24.3404 31.7268 24.3404ZM31.4129 25.6123C31.4129 25.4368 31.2723 25.2943 31.0991 25.2943C30.9259 25.2943 30.7853 25.4368 30.7853 25.6123C30.7853 25.7879 30.9259 25.9303 31.0991 25.9303C31.2723 25.9303 31.4129 25.7879 31.4129 25.6123ZM30.4715 24.3404C30.6448 24.3404 30.7853 24.4829 30.7853 24.6584C30.7853 24.8339 30.6448 24.9764 30.4715 24.9764C30.2983 24.9764 30.1577 24.8339 30.1577 24.6584C30.1577 24.4829 30.2983 24.3404 30.4715 24.3404ZM30.1577 25.6123C30.1577 25.4368 30.0171 25.2943 29.8438 25.2943C29.6706 25.2943 29.53 25.4368 29.53 25.6123C29.53 25.7879 29.6706 25.9303 29.8438 25.9303C30.0171 25.9303 30.1577 25.7879 30.1577 25.6123ZM29.2162 24.3404C29.3894 24.3404 29.53 24.4829 29.53 24.6584C29.53 24.8339 29.3894 24.9764 29.2162 24.9764C29.0429 24.9764 28.9023 24.8339 28.9023 24.6584C28.9023 24.4829 29.0429 24.3404 29.2162 24.3404ZM28.9024 25.6123C28.9024 25.4368 28.7618 25.2943 28.5886 25.2943C28.4154 25.2943 28.2748 25.4368 28.2748 25.6123C28.2748 25.7879 28.4154 25.9303 28.5886 25.9303C28.7618 25.9303 28.9024 25.7879 28.9024 25.6123ZM27.9609 24.3404C28.1341 24.3404 28.2747 24.4829 28.2747 24.6584C28.2747 24.8339 28.1341 24.9764 27.9609 24.9764C27.7877 24.9764 27.6471 24.8339 27.6471 24.6584C27.6471 24.4829 27.7877 24.3404 27.9609 24.3404ZM27.6472 25.6123C27.6472 25.4368 27.5066 25.2943 27.3333 25.2943C27.1601 25.2943 27.0195 25.4368 27.0195 25.6123C27.0195 25.7879 27.1601 25.9303 27.3333 25.9303C27.5066 25.9303 27.6472 25.7879 27.6472 25.6123ZM26.7057 24.3404C26.8789 24.3404 27.0195 24.4829 27.0195 24.6584C27.0195 24.8339 26.8789 24.9764 26.7057 24.9764C26.5324 24.9764 26.3918 24.8339 26.3918 24.6584C26.3918 24.4829 26.5324 24.3404 26.7057 24.3404ZM20.7433 25.1354C20.7433 24.3464 20.1097 23.7044 19.3311 23.7044C18.5525 23.7044 17.9189 24.3464 17.9189 25.1354C17.9189 25.9243 18.5525 26.5663 19.3311 26.5663C20.1097 26.5663 20.7433 25.9243 20.7433 25.1354Z" fill="white"/>
<path fill-rule="evenodd" clip-rule="evenodd" d="M34.8648 20.8955C34.8648 21.2 34.7663 21.4801 34.6028 21.7117V21.7114H16.298C16.1345 21.4798 16.036 21.2 16.036 20.8952V17.2078C16.036 16.4126 16.6847 15.7657 17.4821 15.7657H33.4188C34.2162 15.7657 34.8648 16.4126 34.8648 17.2078V20.8955ZM32.6682 19.5211C32.6682 19.3484 32.5276 19.2082 32.3543 19.2082C32.1811 19.2082 32.0405 19.3484 32.0405 19.5211C32.0405 19.6938 32.1811 19.834 32.3543 19.834C32.5276 19.834 32.6682 19.6938 32.6682 19.5211ZM31.7268 18.2693C31.9 18.2693 32.0406 18.4095 32.0406 18.5823C32.0406 18.755 31.9 18.8952 31.7268 18.8952C31.5536 18.8952 31.413 18.755 31.413 18.5823C31.413 18.4095 31.5536 18.2693 31.7268 18.2693ZM31.4129 19.5211C31.4129 19.3484 31.2723 19.2082 31.0991 19.2082C30.9259 19.2082 30.7853 19.3484 30.7853 19.5211C30.7853 19.6938 30.9259 19.834 31.0991 19.834C31.2723 19.834 31.4129 19.6938 31.4129 19.5211ZM30.4715 18.2693C30.6448 18.2693 30.7853 18.4095 30.7853 18.5823C30.7853 18.755 30.6448 18.8952 30.4715 18.8952C30.2983 18.8952 30.1577 18.755 30.1577 18.5823C30.1577 18.4095 30.2983 18.2693 30.4715 18.2693ZM30.1577 19.5211C30.1577 19.3484 30.0171 19.2082 29.8438 19.2082C29.6706 19.2082 29.53 19.3484 29.53 19.5211C29.53 19.6938 29.6706 19.834 29.8438 19.834C30.0171 19.834 30.1577 19.6938 30.1577 19.5211ZM29.2162 18.2693C29.3894 18.2693 29.53 18.4095 29.53 18.5823C29.53 18.755 29.3894 18.8952 29.2162 18.8952C29.0429 18.8952 28.9023 18.755 28.9023 18.5823C28.9023 18.4095 29.0429 18.2693 29.2162 18.2693ZM28.9024 19.5211C28.9024 19.3484 28.7618 19.2082 28.5886 19.2082C28.4154 19.2082 28.2748 19.3484 28.2748 19.5211C28.2748 19.6938 28.4154 19.834 28.5886 19.834C28.7618 19.834 28.9024 19.6938 28.9024 19.5211ZM27.9609 18.2693C28.1341 18.2693 28.2747 18.4095 28.2747 18.5823C28.2747 18.755 28.1341 18.8952 27.9609 18.8952C27.7877 18.8952 27.6471 18.755 27.6471 18.5823C27.6471 18.4095 27.7877 18.2693 27.9609 18.2693ZM27.6472 19.5211C27.6472 19.3484 27.5066 19.2082 27.3333 19.2082C27.1601 19.2082 27.0195 19.3484 27.0195 19.5211C27.0195 19.6938 27.1601 19.834 27.3333 19.834C27.5066 19.834 27.6472 19.6938 27.6472 19.5211ZM26.7057 18.2693C26.8789 18.2693 27.0195 18.4095 27.0195 18.5823C27.0195 18.755 26.8789 18.8952 26.7057 18.8952C26.5324 18.8952 26.3918 18.755 26.3918 18.5823C26.3918 18.4095 26.5324 18.2693 26.7057 18.2693ZM20.7433 19.0517C20.7433 18.2753 20.1097 17.6434 19.3311 17.6434C18.5525 17.6434 17.9189 18.2753 17.9189 19.0517C17.9189 19.8281 18.5525 20.4599 19.3311 20.4599C20.1097 20.4599 20.7433 19.8281 20.7433 19.0517Z" fill="white"/>
<path fill-rule="evenodd" clip-rule="evenodd" d="M16.036 29.1945C16.036 28.89 16.1345 28.6099 16.298 28.3784H34.6028C34.7663 28.6099 34.8648 28.8897 34.8648 29.1945V32.8823C34.8648 33.6774 34.2162 34.3243 33.4188 34.3243H17.4821C16.6847 34.3243 16.036 33.6774 16.036 32.8819V29.1945ZM17.9189 31.0383C17.9189 31.8148 18.5525 32.4466 19.3311 32.4466C20.1097 32.4466 20.7433 31.8148 20.7433 31.0383C20.7433 30.2619 20.1097 29.6301 19.3311 29.6301C18.5525 29.6301 17.9189 30.2619 17.9189 31.0383ZM26.7059 30.8819C26.5327 30.8819 26.3921 30.7417 26.3921 30.5689C26.3921 30.3962 26.5327 30.256 26.7059 30.256C26.8791 30.256 27.0197 30.3962 27.0197 30.5689C27.0197 30.7417 26.8791 30.8819 26.7059 30.8819ZM27.0197 31.5078C27.0197 31.6805 27.1602 31.8207 27.3335 31.8207C27.5067 31.8207 27.6473 31.6805 27.6473 31.5078C27.6473 31.335 27.5067 31.1948 27.3335 31.1948C27.1602 31.1948 27.0197 31.335 27.0197 31.5078ZM27.9612 30.8819C27.7879 30.8819 27.6473 30.7417 27.6473 30.5689C27.6473 30.3962 27.7879 30.256 27.9612 30.256C28.1344 30.256 28.275 30.3962 28.275 30.5689C28.275 30.7417 28.1344 30.8819 27.9612 30.8819ZM28.275 31.5078C28.275 31.6805 28.4156 31.8207 28.5888 31.8207C28.7621 31.8207 28.9027 31.6805 28.9027 31.5078C28.9027 31.335 28.7621 31.1948 28.5888 31.1948C28.4156 31.1948 28.275 31.335 28.275 31.5078ZM29.2164 30.8819C29.0432 30.8819 28.9026 30.7417 28.9026 30.5689C28.9026 30.3962 29.0432 30.256 29.2164 30.256C29.3896 30.256 29.5302 30.3962 29.5302 30.5689C29.5302 30.7417 29.3896 30.8819 29.2164 30.8819ZM29.5303 31.5078C29.5303 31.6805 29.6709 31.8207 29.8441 31.8207C30.0173 31.8207 30.1579 31.6805 30.1579 31.5078C30.1579 31.335 30.0173 31.1948 29.8441 31.1948C29.6709 31.1948 29.5303 31.335 29.5303 31.5078ZM30.4717 30.8819C30.2984 30.8819 30.1578 30.7417 30.1578 30.5689C30.1578 30.3962 30.2984 30.256 30.4717 30.256C30.6449 30.256 30.7855 30.3962 30.7855 30.5689C30.7855 30.7417 30.6449 30.8819 30.4717 30.8819ZM30.7855 31.5078C30.7855 31.6805 30.9261 31.8207 31.0993 31.8207C31.2726 31.8207 31.4132 31.6805 31.4132 31.5078C31.4132 31.335 31.2726 31.1948 31.0993 31.1948C30.9261 31.1948 30.7855 31.335 30.7855 31.5078ZM31.727 30.8819C31.5538 30.8819 31.4132 30.7417 31.4132 30.5689C31.4132 30.3962 31.5538 30.256 31.727 30.256C31.9003 30.256 32.0408 30.3962 32.0408 30.5689C32.0408 30.7417 31.9003 30.8819 31.727 30.8819ZM32.0408 31.5078C32.0408 31.6805 32.1814 31.8207 32.3546 31.8207C32.5278 31.8207 32.6684 31.6805 32.6684 31.5078C32.6684 31.335 32.5278 31.1948 32.3546 31.1948C32.1814 31.1948 32.0408 31.335 32.0408 31.5078Z" fill="white"/>
<path fill-rule="evenodd" clip-rule="evenodd" d="M35.9459 18.6766C35.9459 19.048 36.248 19.3501 36.6193 19.3501H45.1397C45.511 19.3501 45.8131 19.048 45.8131 18.6766V16.3492C45.8131 15.9778 45.511 15.6757 45.1397 15.6757H36.6193C36.248 15.6757 35.9459 15.9778 35.9459 16.3492V18.6766ZM57.027 18.6766C57.027 19.048 56.7249 19.3501 56.3537 19.3501H47.8332C47.462 19.3501 47.1599 19.048 47.1599 18.6766V16.3492C47.1599 15.9778 47.462 15.6757 47.8332 15.6757H56.3537C56.7249 15.6757 57.027 15.9778 57.027 16.3492V18.6766ZM50.7467 24.3715C51.1179 24.3715 51.42 24.0693 51.42 23.698V21.3707C51.42 20.9992 51.1179 20.6971 50.7467 20.6971H42.2262C41.855 20.6971 41.5529 20.9992 41.5529 21.3707V23.6981C41.5529 24.0694 41.855 24.3716 42.2262 24.3716H50.7467V24.3715ZM40.2061 23.698C40.2061 24.0694 39.9041 24.3715 39.5328 24.3715V24.3716H36.6685C36.2971 24.3716 35.9951 24.0695 35.9951 23.6981V21.3707C35.9951 20.9992 36.2971 20.6971 36.6685 20.6971H39.5328C39.9041 20.6971 40.2061 20.9992 40.2061 21.3707V23.698ZM56.3045 24.3715C56.6759 24.3715 56.9779 24.0694 56.9779 23.698V21.3707C56.9779 20.9992 56.6759 20.6971 56.3045 20.6971H53.4402C53.0689 20.6971 52.7668 20.9992 52.7668 21.3707V23.6981C52.7668 24.0695 53.0689 24.3716 53.4402 24.3716H56.3045V24.3715ZM45.8131 28.7194C45.8131 29.0909 45.511 29.3929 45.1397 29.3929H36.6193C36.248 29.3929 35.9459 29.0909 35.9459 28.7194V26.392C35.9459 26.0207 36.248 25.7185 36.6193 25.7185H45.1397C45.511 25.7185 45.8131 26.0207 45.8131 26.392V28.7194ZM56.3537 29.3929C56.725 29.3929 57.0271 29.0909 57.0271 28.7194V26.392C57.0271 26.0207 56.725 25.7185 56.3537 25.7185H47.8333C47.462 25.7185 47.1599 26.0207 47.1599 26.392V28.7194C47.1599 29.0909 47.462 29.3929 47.8333 29.3929H56.3537ZM51.42 33.7409C51.42 34.1123 51.1179 34.4144 50.7467 34.4144H42.2262C41.855 34.4144 41.5529 34.1123 41.5529 33.7409V31.4135C41.5529 31.0421 41.855 30.74 42.2262 30.74H50.7467C51.1179 30.74 51.42 31.0421 51.42 31.4135V33.7409ZM39.5328 34.4144C39.9041 34.4144 40.2061 34.1123 40.2061 33.7409V31.4135C40.2061 31.0421 39.9041 30.74 39.5328 30.74H36.6685C36.2971 30.74 35.9951 31.0421 35.9951 31.4135V33.7409C35.9951 34.1123 36.2971 34.4144 36.6685 34.4144H39.5328ZM56.9779 33.7409C56.9779 34.1123 56.6759 34.4144 56.3045 34.4144H53.4402C53.0689 34.4144 52.7668 34.1123 52.7668 33.7409V31.4135C52.7668 31.0421 53.0689 30.74 53.4402 30.74H56.3045C56.6759 30.74 56.9779 31.0421 56.9779 31.4135V33.7409Z" fill="white"/>
</g>
</svg>
