<svg height="132" viewBox="0 0 132 132" width="132" xmlns="http://www.w3.org/2000/svg"><path d="m66 5.529c-34.239 0-62 27.761-62 62 0 27.396 17.763 50.632 42.402 58.828 3.099.568 4.23-1.347 4.23-2.981 0-1.476-.057-6.365-.087-11.542-17.241 3.746-20.885-7.311-20.885-7.311-2.823-7.16-6.883-9.067-6.883-9.067-5.635-3.845.427-3.769.427-3.769 6.225.431 9.503 6.387 9.503 6.387 5.532 9.477 14.516 6.736 18.043 5.146.563-3.996 2.167-6.735 3.936-8.279-13.763-1.566-28.242-6.887-28.242-30.645 0-6.773 2.418-12.298 6.376-16.639-.632-1.574-2.766-7.882.613-16.416 0 0 5.199-1.665 17.051 6.357 4.941-1.381 10.244-2.062 15.515-2.085 5.268.023 10.573.711 15.522 2.093 11.829-8.03 17.036-6.357 17.036-6.357 3.391 8.541 1.257 14.841.621 16.408 3.974 4.34 6.373 9.865 6.373 16.639 0 23.818-14.502 29.063-28.313 30.6 2.232 1.922 4.208 5.691 4.208 11.473 0 8.288-.084 14.971-.084 17.014 0 1.65 1.128 3.58 4.27 2.975 24.62-8.212 42.368-31.447 42.368-58.829 0-34.239-27.761-62-62-62z" fill="#000000"/></svg>