<svg width="32" height="32" viewBox="0 0 32 32" fill="none" xmlns="http://www.w3.org/2000/svg">
<path d="M31.5239 6.58269C30.4106 7.07602 29.2146 7.40935 27.9573 7.56002C29.2546 6.78374 30.2252 5.56198 30.6879 4.12269C29.4691 4.84667 28.1351 5.35628 26.7439 5.62935C25.8084 4.63051 24.5693 3.96846 23.219 3.74599C21.8687 3.52352 20.4827 3.75308 19.2763 4.39902C18.0698 5.04497 17.1103 6.07117 16.5468 7.31829C15.9833 8.56542 15.8473 9.96369 16.1599 11.296C13.6902 11.172 11.2741 10.5301 9.0685 9.41189C6.8629 8.2937 4.91706 6.72424 3.35727 4.80535C2.82393 5.72535 2.51727 6.79202 2.51727 7.92802C2.51667 8.95068 2.76851 9.95768 3.25044 10.8597C3.73237 11.7617 4.42948 12.5307 5.27993 13.0987C4.29364 13.0673 3.3291 12.8008 2.4666 12.3214V12.4014C2.4665 13.8357 2.96264 15.2259 3.87084 16.336C4.77905 17.4462 6.04336 18.2079 7.44927 18.492C6.53431 18.7396 5.57505 18.7761 4.64393 18.5987C5.0406 19.8328 5.81326 20.9121 6.85376 21.6853C7.89425 22.4585 9.15049 22.8869 10.4466 22.9107C8.24638 24.6379 5.52912 25.5748 2.73193 25.5707C2.23644 25.5708 1.74137 25.5419 1.24927 25.484C4.08857 27.3096 7.39372 28.2785 10.7693 28.2747C22.1959 28.2747 28.4426 18.8107 28.4426 10.6027C28.4426 10.336 28.4359 10.0667 28.4239 9.80002C29.639 8.92132 30.6878 7.83322 31.5213 6.58669L31.5239 6.58269Z" fill="#828282"/>
</svg>
