<svg width="32" height="32" viewBox="0 0 32 32" fill="none" xmlns="http://www.w3.org/2000/svg">
<g clip-path="url(#clip0)">
<path d="M31.3332 8.67594C31.152 8.02958 30.799 7.4444 30.3118 6.98261C29.8109 6.50661 29.1969 6.16612 28.5278 5.99327C26.0238 5.33327 15.9918 5.33327 15.9918 5.33327C11.8096 5.28569 7.62842 5.49497 3.47185 5.95994C2.80277 6.14556 2.18993 6.49365 1.68785 6.97327C1.19451 7.44794 0.83718 8.03327 0.650513 8.67461C0.202104 11.0903 -0.0157643 13.5431 -0.000153652 15.9999C-0.0161537 18.4546 0.20118 20.9066 0.650513 23.3253C0.83318 23.9639 1.18918 24.5466 1.68385 25.0173C2.17851 25.4879 2.79451 25.8279 3.47185 26.0079C6.00918 26.6666 15.9918 26.6666 15.9918 26.6666C20.1794 26.7143 24.3659 26.505 28.5278 26.0399C29.1969 25.8671 29.8109 25.5266 30.3118 25.0506C30.8052 24.5799 31.1558 23.9946 31.3318 23.3573C31.792 20.9425 32.0157 18.4887 31.9998 16.0306C32.0345 13.5621 31.811 11.0967 31.3332 8.67461V8.67594ZM12.8025 20.5653V11.4359L21.1492 16.0013L12.8025 20.5653Z" fill="#828282"/>
</g>
<defs>
<clipPath id="clip0">
<rect width="32" height="32" fill="white"/>
</clipPath>
</defs>
</svg>
