<svg width="32" height="32" viewBox="0 0 32 32" fill="none" xmlns="http://www.w3.org/2000/svg">
<path fill-rule="evenodd" clip-rule="evenodd" d="M1.33325 3.78392C1.33325 3.13396 1.59145 2.51063 2.05104 2.05104C2.51063 1.59145 3.13396 1.33326 3.78392 1.33326H28.2133C28.5354 1.33273 28.8544 1.39574 29.1521 1.51868C29.4498 1.64162 29.7204 1.82207 29.9482 2.0497C30.1761 2.27734 30.3569 2.54769 30.4801 2.84527C30.6034 3.14285 30.6668 3.46182 30.6666 3.78392V28.2133C30.6669 28.5354 30.6038 28.8545 30.4807 29.1522C30.3576 29.4499 30.177 29.7205 29.9493 29.9483C29.7215 30.1762 29.4511 30.3569 29.1534 30.4802C28.8558 30.6034 28.5367 30.6668 28.2146 30.6666H3.78392C3.46198 30.6666 3.1432 30.6032 2.84578 30.4799C2.54837 30.3567 2.27815 30.176 2.05056 29.9483C1.82298 29.7206 1.64249 29.4503 1.51942 29.1528C1.39634 28.8553 1.33308 28.5365 1.33325 28.2146V3.78392ZM12.9439 12.5173H16.9159V14.5119C17.4893 13.3653 18.9559 12.3333 21.1599 12.3333C25.3853 12.3333 26.3866 14.6173 26.3866 18.8079V26.5706H22.1106V19.7626C22.1106 17.3759 21.5373 16.0293 20.0813 16.0293C18.0613 16.0293 17.2213 17.4813 17.2213 19.7626V26.5706H12.9439V12.5173ZM5.61059 26.3879H9.88792V12.3333H5.61059V26.3866V26.3879ZM10.4999 7.74926C10.508 8.11549 10.4428 8.47964 10.3082 8.82034C10.1737 9.16104 9.97239 9.47144 9.71623 9.7333C9.46007 9.99516 9.15418 10.2032 8.81653 10.3453C8.47887 10.4873 8.11624 10.5605 7.74992 10.5605C7.3836 10.5605 7.02097 10.4873 6.68331 10.3453C6.34565 10.2032 6.03977 9.99516 5.78361 9.7333C5.52745 9.47144 5.32618 9.16104 5.1916 8.82034C5.05702 8.47964 4.99185 8.11549 4.99992 7.74926C5.01575 7.03039 5.31243 6.34631 5.82643 5.8435C6.34043 5.3407 7.03088 5.05915 7.74992 5.05915C8.46895 5.05915 9.1594 5.3407 9.67341 5.8435C10.1874 6.34631 10.4841 7.03039 10.4999 7.74926Z" fill="#828282"/>
</svg>
