<svg width="32" height="32" viewBox="0 0 32 32" fill="none" xmlns="http://www.w3.org/2000/svg">
<path d="M28.88 2H3.12C2.5005 2 2 2.5005 2 3.12V28.88C2 29.4995 2.5005 30 3.12 30H28.88C29.4995 30 30 29.4995 30 28.88V3.12C30 2.5005 29.4995 2 28.88 2ZM25.646 10.1725H23.4095C21.656 10.1725 21.3165 11.0055 21.3165 12.2305V14.929H25.5025L24.9565 19.1535H21.3165V30H16.952V19.157H13.3015V14.929H16.952V11.814C16.952 8.1985 19.1605 6.228 22.3875 6.228C23.9345 6.228 25.261 6.3435 25.6495 6.396V10.1725H25.646Z" fill="#828282"/>
</svg>
