<svg width="32" height="32" viewBox="0 0 32 32" fill="none" xmlns="http://www.w3.org/2000/svg">
<path d="M27.7651 7.58527L30 5.46448V5H22.2599L16.7438 18.6249L10.4693 5H2.35365V5.46448L4.96406 8.58265C5.21927 8.81309 5.35052 9.15156 5.31771 9.49002V21.743C5.39792 22.1859 5.25573 22.636 4.94219 22.9565L2 26.4959V26.9532H10.3344V26.4887L7.39583 22.9601C7.23839 22.8022 7.11996 22.6106 7.04977 22.4001C6.97958 22.1896 6.95951 21.966 6.99115 21.7466V11.1463L14.3083 26.9604H15.1578L21.4505 11.1463V23.745C21.4505 24.0763 21.4505 24.1447 21.2318 24.3643L18.9677 26.5355V27H29.949V26.5355L27.7651 24.4147C27.5755 24.2707 27.4771 24.0295 27.5172 23.7954V8.20458C27.4983 8.08888 27.5114 7.97028 27.555 7.86129C27.5986 7.7523 27.6712 7.65695 27.7651 7.58527Z" fill="#828282"/>
</svg>
