<svg width="168" height="24" viewBox="0 0 168 24" fill="none" xmlns="http://www.w3.org/2000/svg">
<path d="M14.7305 16.4449C13.6145 17.7298 12.0898 18.494 10.4287 18.5989C6.94655 18.8183 3.94311 16.0364 3.73317 12.398C3.52323 8.75927 6.18508 5.62044 9.66719 5.40105C10.6684 5.33811 11.6315 5.5617 12.543 5.92134C14.0209 6.50457 16.712 4.14228 16.712 4.14228C14.7032 2.282 12.122 1.35052 9.4432 1.51955C3.913 1.86781 -0.315101 6.85313 0.0184551 12.6318C0.352011 18.411 5.12217 22.829 10.6527 22.4807C13.2345 22.318 15.609 21.1509 17.3717 19.1885L14.7305 16.4449ZM12.9204 13.3733C12.8628 13.8798 13.3475 14.4645 14.1551 14.4384L16.7241 17.1226L16.7286 17.1271L16.7304 17.1292L16.735 17.134L19.3039 19.8178C19.2786 20.6615 19.8379 21.1689 20.3235 21.1087C20.8845 21.0392 21.3436 20.3378 20.692 19.6575C20.5357 19.4936 18.5352 17.395 18.5352 17.395C18.5352 17.395 20.9114 14.172 21.8894 13.0025C22.1332 12.7115 22.1983 12.5943 22.5141 12.5607C22.897 12.52 23.4021 12.6102 23.7712 12.0683C24.1414 11.5262 24.0287 10.9016 23.6731 10.5365C23.2417 10.0936 22.447 10.0405 21.8871 10.5443C21.4991 10.8932 16.4745 15.2416 16.4745 15.2416C16.4745 15.2416 14.466 13.1512 14.3092 12.9878C13.6575 12.3072 12.987 12.7867 12.9204 13.3733Z" fill="#FBB03B"/>
<path d="M41.5057 15.71C42.0353 15.71 42.503 15.6468 42.9116 15.5205C43.3193 15.3922 43.6998 15.262 44.0523 15.1317C44.2062 15.0637 44.3166 15.0501 44.3824 15.088C44.4483 15.1278 44.5093 15.2075 44.5645 15.329L45.1271 16.5236C45.2045 16.6781 45.2316 16.7938 45.2094 16.8715C45.189 16.9493 45.1271 17.0144 45.0273 17.0708C44.4318 17.4353 43.8063 17.6822 43.1508 17.8095C42.4953 17.9368 41.8465 17.999 41.2084 17.999C40.304 17.999 39.5246 17.8639 38.8681 17.5927C38.2125 17.3235 37.6722 16.9318 37.2481 16.4235C36.824 15.9151 36.5093 15.2921 36.306 14.5553C36.1017 13.8205 36 12.9934 36 12.0748C36 11.166 36.1298 10.3438 36.3883 9.60214C36.6478 8.85955 37.009 8.22388 37.4718 7.69318C37.9356 7.16054 38.4943 6.75231 39.1498 6.46363C39.8054 6.1769 40.5306 6.03305 41.3236 6.03305C41.8862 6.03305 42.4372 6.08067 42.9775 6.17496C43.5178 6.26827 44.0464 6.45974 44.5645 6.74647C44.6855 6.81257 44.7572 6.87964 44.7794 6.94573C44.8007 7.01183 44.7736 7.13916 44.6971 7.32869L44.1849 8.4727C44.1287 8.62822 44.0716 8.7225 44.0106 8.75555C43.9496 8.78859 43.8431 8.77693 43.6882 8.7225C43.2912 8.57962 42.9213 8.47076 42.5805 8.39884C42.2387 8.32691 41.8581 8.29095 41.4389 8.29095C40.9876 8.29095 40.5877 8.39008 40.2401 8.58351C39.8935 8.77693 39.6011 9.04228 39.3638 9.37858C39.1266 9.71683 38.9475 10.1153 38.8264 10.5731C38.7054 11.0329 38.6444 11.5335 38.6444 12.0758C38.6444 12.6182 38.6909 13.109 38.7848 13.5542C38.8787 13.9964 39.0385 14.3794 39.2651 14.6992C39.4907 15.0199 39.786 15.2697 40.1501 15.4466C40.5141 15.6206 40.9654 15.71 41.5057 15.71ZM56.7765 11.9757C56.7765 12.9273 56.6748 13.7758 56.4705 14.5145C56.2662 15.2581 55.9496 15.8869 55.5197 16.4069C55.0897 16.9269 54.5504 17.3225 53.8997 17.5937C53.249 17.8649 52.4783 18 51.5845 18C49.8755 18 48.6051 17.481 47.7734 16.441C46.9416 15.4009 46.5243 13.9294 46.5243 12.0243C46.5243 11.0961 46.6434 10.2582 46.8806 9.51077C47.1178 8.76235 47.4558 8.13251 47.8973 7.61931C48.3379 7.10514 48.8724 6.70857 49.5008 6.43156C50.1292 6.15552 50.8399 6.01749 51.6339 6.01749C52.4938 6.01749 53.2461 6.15552 53.891 6.43156C54.5359 6.70857 55.0704 7.10319 55.4945 7.61931C55.9186 8.13251 56.2391 8.75944 56.4531 9.49522C56.669 10.231 56.7765 11.0572 56.7765 11.9757ZM54.1476 12.0253C54.1476 11.5276 54.1118 11.0514 54.0401 10.5974C53.9685 10.1435 53.8387 9.74502 53.6509 9.40288C53.464 9.05978 53.2103 8.78665 52.8908 8.58156C52.5703 8.37648 52.1578 8.2754 51.6504 8.2754C51.2311 8.2754 50.8651 8.37356 50.5504 8.56698C50.2367 8.75943 49.9743 9.02284 49.7651 9.35526C49.556 9.68767 49.402 10.0745 49.3023 10.5168C49.2026 10.959 49.1532 11.4285 49.1532 11.9271C49.1532 12.5142 49.1938 13.04 49.2771 13.5036C49.3594 13.9682 49.4979 14.3668 49.6906 14.6982C49.8833 15.0306 50.1389 15.2853 50.4594 15.4612C50.7789 15.64 51.1808 15.7266 51.6659 15.7266C52.1403 15.7266 52.5364 15.6245 52.8569 15.4194C53.1764 15.2163 53.4291 14.9451 53.6179 14.6068C53.8048 14.2686 53.9404 13.8759 54.0227 13.4278C54.105 12.9797 54.1476 12.5122 54.1476 12.0253ZM58.7237 9.36984C58.7237 8.90426 58.8041 8.46785 58.9638 8.05865C59.1236 7.64847 59.3637 7.29273 59.6833 6.98558C60.0028 6.68135 60.4105 6.44128 60.9072 6.26438C61.403 6.08748 61.9878 6 62.6608 6C62.9687 6 63.2911 6.01847 63.6281 6.05054C63.965 6.08359 64.2942 6.13316 64.6206 6.19926C64.9449 6.26438 65.2567 6.34603 65.555 6.43934C65.8522 6.53459 66.1224 6.64248 66.3644 6.76398C66.4971 6.82813 66.5707 6.89422 66.5871 6.95351C66.6046 7.01474 66.5842 7.12846 66.529 7.29467L66.0991 8.5388C66.0439 8.69431 65.9897 8.78179 65.9345 8.80415C65.8793 8.82456 65.7854 8.8197 65.6528 8.78666C65.1347 8.63211 64.6196 8.50381 64.1064 8.40466C63.5942 8.30358 63.112 8.25498 62.6598 8.25498C62.1747 8.25498 61.8329 8.34441 61.6344 8.52033C61.4359 8.69626 61.3361 8.91204 61.3361 9.1667C61.3361 9.31055 61.3691 9.44371 61.4359 9.5652C61.5027 9.6867 61.6102 9.80528 61.7583 9.92192C61.9074 10.0366 62.105 10.1562 62.3538 10.2777C62.6017 10.3992 62.9077 10.5333 63.2708 10.6762C63.8333 10.8978 64.3514 11.1223 64.8249 11.3468C65.2984 11.5733 65.7031 11.8309 66.0401 12.1186C66.3761 12.4073 66.6404 12.7455 66.8341 13.1314C67.0267 13.5172 67.1236 13.9838 67.1236 14.5262C67.1236 15.1132 67.018 15.6216 66.8089 16.0531C66.5997 16.4837 66.3073 16.8434 65.9326 17.1311C65.5579 17.4197 65.1028 17.6355 64.5683 17.7784C64.0338 17.9213 63.446 17.9942 62.807 17.9942C62.4545 17.9942 62.0846 17.9747 61.6992 17.9358C61.3139 17.8979 60.9304 17.8357 60.5499 17.7531C60.1694 17.6705 59.7975 17.5636 59.4335 17.4304C59.0704 17.2973 58.7334 17.1369 58.4255 16.9503C58.3374 16.8939 58.2841 16.8346 58.2676 16.7675C58.2512 16.7024 58.2696 16.5955 58.3257 16.4526L58.8883 15.1268C58.9435 14.9917 59.0045 14.915 59.0704 14.8936C59.1362 14.8722 59.2311 14.8877 59.3521 14.9441C59.5729 15.0326 59.815 15.1259 60.0793 15.2182C60.3436 15.3125 60.6167 15.3951 60.8975 15.467C61.1783 15.539 61.4649 15.6002 61.7573 15.6498C62.0498 15.7013 62.3393 15.7246 62.6249 15.7246C62.9667 15.7246 63.2533 15.6916 63.4848 15.6245C63.7162 15.5584 63.904 15.4729 64.0473 15.3659C64.1906 15.259 64.2894 15.1405 64.3446 15.0005C64.3998 14.8615 64.4269 14.7157 64.4269 14.5612C64.4269 14.3959 64.3969 14.2462 64.3359 14.1131C64.2749 13.9799 64.1761 13.8497 64.0377 13.7243C63.9002 13.597 63.7133 13.4735 63.476 13.3578C63.2378 13.2432 62.9435 13.1178 62.591 12.9856C62.0072 12.763 61.4775 12.5375 61.004 12.3042C60.5305 12.0729 60.1219 11.8144 59.7801 11.5335C59.4383 11.2506 59.1769 10.9367 58.9948 10.5858C58.8147 10.2407 58.7237 9.83444 58.7237 9.36984ZM69.3061 9.36984C69.3061 8.90426 69.3855 8.46785 69.5462 8.05865C69.706 7.64847 69.9452 7.29273 70.2657 6.98558C70.5852 6.68135 70.9928 6.44128 71.4896 6.26438C71.9853 6.08748 72.5692 6 73.2412 6C73.5501 6 73.8725 6.01847 74.2095 6.05054C74.5455 6.08359 74.8757 6.13316 75.201 6.19926C75.5263 6.26438 75.8381 6.34603 76.1364 6.43934C76.4346 6.53459 76.7038 6.64248 76.9459 6.76398C77.0775 6.82813 77.1521 6.89422 77.1686 6.95351C77.186 7.01474 77.1666 7.12846 77.1114 7.29467L76.6805 8.5388C76.6254 8.69431 76.5711 8.78179 76.515 8.80415C76.4598 8.82456 76.3678 8.8197 76.2342 8.78666C75.7152 8.63211 75.2 8.50381 74.6878 8.40466C74.1756 8.30358 73.6934 8.25498 73.2402 8.25498C72.7551 8.25498 72.4143 8.34441 72.2158 8.52033C72.0173 8.69626 71.9176 8.91204 71.9176 9.1667C71.9176 9.31055 71.9505 9.44371 72.0173 9.5652C72.0841 9.6867 72.1906 9.80528 72.3397 9.92192C72.4888 10.0366 72.6873 10.1562 72.9352 10.2777C73.1831 10.3992 73.4891 10.5333 73.8532 10.6762C74.4157 10.8978 74.9328 11.1223 75.4063 11.3468C75.8798 11.5733 76.2855 11.8309 76.6215 12.1186C76.9575 12.4073 77.2218 12.7455 77.4155 13.1314C77.6072 13.5172 77.705 13.9838 77.705 14.5262C77.705 15.1132 77.5994 15.6216 77.3893 16.0531C77.1802 16.4837 76.8878 16.8434 76.513 17.1311C76.1393 17.4197 75.6842 17.6355 75.1497 17.7784C74.6152 17.9213 74.0274 17.9942 73.3893 17.9942C73.0359 17.9942 72.667 17.9747 72.2797 17.9358C71.8943 17.8979 71.5118 17.8357 71.1303 17.7531C70.7498 17.6705 70.3789 17.5636 70.0149 17.4304C69.6508 17.2973 69.3138 17.1369 69.0059 16.9503C68.9178 16.8939 68.8646 16.8346 68.8491 16.7675C68.8326 16.7024 68.851 16.5955 68.9072 16.4526L69.4697 15.1268C69.5249 14.9917 69.585 14.915 69.6518 14.8936C69.7176 14.8722 69.8115 14.8877 69.9326 14.9441C70.1533 15.0326 70.3964 15.1259 70.6597 15.2182C70.9251 15.3125 71.1971 15.3951 71.478 15.467C71.7597 15.539 72.0454 15.6002 72.3378 15.6498C72.6292 15.7013 72.9188 15.7246 73.2054 15.7246C73.5472 15.7246 73.8328 15.6916 74.0652 15.6245C74.2976 15.5584 74.4845 15.4729 74.6278 15.3659C74.7711 15.259 74.8699 15.1405 74.926 15.0005C74.9802 14.8615 75.0083 14.7157 75.0083 14.5612C75.0083 14.3959 74.9783 14.2462 74.9173 14.1131C74.8563 13.9799 74.7575 13.8497 74.62 13.7243C74.4825 13.597 74.2957 13.4735 74.0575 13.3578C73.8212 13.2432 73.5259 13.1178 73.1734 12.9856C72.5886 12.763 72.0599 12.5375 71.5854 12.3042C71.1119 12.0729 70.7033 11.8144 70.3625 11.5335C70.0207 11.2506 69.7583 10.9367 69.5772 10.5858C69.3971 10.2407 69.3061 9.83444 69.3061 9.36984ZM86.1533 15.3941H82.3673L81.7224 17.5023C81.6895 17.6112 81.642 17.6929 81.582 17.7434C81.521 17.793 81.4135 17.8173 81.2596 17.8173H79.324C79.2029 17.8173 79.1274 17.7842 79.1003 17.7162C79.0732 17.6491 79.0703 17.5743 79.0935 17.4839L82.5319 7.07695C82.5871 6.8913 82.651 6.73676 82.7226 6.62109C82.7943 6.50543 82.8756 6.41406 82.9705 6.34797C83.0644 6.28187 83.1748 6.23522 83.3007 6.20606C83.4276 6.17884 83.5738 6.16426 83.7393 6.16426H84.7309C84.9177 6.16426 85.0785 6.17301 85.2111 6.18953C85.3428 6.20606 85.459 6.24785 85.5578 6.31297C85.6565 6.37907 85.7418 6.47432 85.8134 6.59582C85.886 6.71732 85.9548 6.87672 86.0206 7.07598L89.459 17.4829C89.4813 17.548 89.4813 17.6229 89.459 17.6997C89.4377 17.7764 89.3651 17.8153 89.244 17.8153H87.2775C87.1555 17.8153 87.0538 17.8017 86.9715 17.7735C86.8882 17.7473 86.8301 17.6715 86.7972 17.55L86.1533 15.3941ZM82.9637 13.354H85.5597L84.9323 11.237L84.3193 8.85664H84.2196L83.5922 11.237L82.9637 13.354ZM96.5139 15.71C97.0436 15.71 97.5122 15.6468 97.9199 15.5205C98.3275 15.3922 98.7071 15.262 99.0605 15.1317C99.2145 15.0637 99.3239 15.0501 99.3907 15.088C99.4565 15.1278 99.5195 15.2075 99.5727 15.329L100.136 16.5236C100.212 16.6781 100.239 16.7938 100.218 16.8715C100.196 16.9493 100.136 17.0144 100.036 17.0708C99.4401 17.4353 98.8136 17.6822 98.159 17.8095C97.5025 17.9368 96.8548 17.999 96.2167 17.999C95.3123 17.999 94.5318 17.8639 93.8773 17.5927C93.2198 17.3235 92.6805 16.9318 92.2564 16.4235C91.8313 15.9151 91.5176 15.2921 91.3142 14.5553C91.1109 13.8195 91.0083 12.9934 91.0083 12.0739C91.0083 11.166 91.137 10.3428 91.3965 9.60117C91.6551 8.85955 92.0172 8.2229 92.4791 7.69221C92.9429 7.16054 93.5016 6.75036 94.1571 6.46363C94.8126 6.17495 95.5379 6.03207 96.3309 6.03207C96.8945 6.03207 97.4444 6.0797 97.9847 6.17398C98.5251 6.26924 99.0537 6.45877 99.5718 6.74745C99.6928 6.81257 99.7645 6.88061 99.7877 6.9467C99.808 7.01182 99.7819 7.13916 99.7044 7.32869L99.1922 8.47367C99.137 8.62919 99.0808 8.72347 99.0189 8.75652C98.9569 8.78957 98.8504 8.77693 98.6964 8.72347C98.2994 8.58059 97.9296 8.47173 97.5877 8.39981C97.245 8.32788 96.8654 8.29192 96.4461 8.29192C95.9939 8.29192 95.595 8.39106 95.2474 8.58448C94.8998 8.77791 94.6083 9.04325 94.3711 9.37955C94.1339 9.7178 93.9547 10.1163 93.8337 10.5741C93.7127 11.0339 93.6517 11.5344 93.6517 12.0768C93.6517 12.6191 93.6982 13.11 93.7921 13.5552C93.886 13.9974 94.0467 14.3804 94.2723 14.7001C94.498 15.0209 94.7933 15.2707 95.1574 15.4476C95.5214 15.6206 95.9736 15.71 96.5139 15.71ZM108.088 10.4147L111.941 17.4022C112.017 17.5237 112.039 17.6248 112.006 17.7016C111.973 17.7784 111.897 17.8173 111.775 17.8173H109.857C109.627 17.8173 109.458 17.8027 109.352 17.7764C109.248 17.7492 109.14 17.6345 109.03 17.4343L106.368 12.4724L104.616 14.5806V17.4693C104.616 17.6248 104.593 17.722 104.55 17.7599C104.505 17.7998 104.401 17.8192 104.236 17.8192H102.499C102.366 17.8192 102.271 17.7949 102.21 17.7453C102.149 17.6938 102.118 17.6034 102.118 17.4712V6.5482C102.118 6.41601 102.147 6.32562 102.21 6.27604C102.271 6.2255 102.366 6.2012 102.499 6.2012H104.236C104.401 6.2012 104.505 6.22161 104.55 6.26049C104.593 6.29839 104.616 6.39559 104.616 6.55111V10.9989L104.681 11.0309L106.235 9.05686L108.302 6.46752C108.403 6.35769 108.5 6.28479 108.601 6.25174C108.701 6.2187 108.86 6.2012 109.079 6.2012H111.212C111.312 6.2012 111.381 6.23133 111.419 6.29257C111.458 6.3538 111.439 6.42961 111.361 6.51612L108.088 10.4147ZM149.603 9.36984C149.603 8.90426 149.683 8.46785 149.844 8.05865C150.002 7.64847 150.242 7.29273 150.564 6.98753C150.881 6.6833 151.29 6.44128 151.787 6.26438C152.283 6.08748 152.865 6 153.539 6C153.847 6 154.17 6.01847 154.507 6.05054C154.844 6.08359 155.174 6.13413 155.498 6.19926C155.823 6.26438 156.135 6.34603 156.433 6.43934C156.732 6.53459 157 6.64248 157.243 6.76398C157.376 6.82813 157.45 6.89519 157.465 6.95351C157.483 7.01474 157.463 7.12846 157.406 7.29467L156.978 8.5388C156.922 8.69431 156.868 8.78179 156.812 8.80415C156.757 8.82553 156.664 8.8197 156.53 8.78666C156.014 8.63211 155.498 8.50478 154.984 8.40466C154.471 8.30358 153.99 8.25498 153.538 8.25498C153.054 8.25498 152.711 8.34441 152.513 8.52033C152.314 8.69723 152.214 8.91301 152.214 9.1667C152.214 9.31055 152.247 9.44371 152.314 9.5652C152.381 9.6867 152.489 9.80528 152.637 9.92192C152.785 10.0366 152.983 10.1562 153.232 10.2777C153.479 10.3992 153.785 10.5333 154.148 10.6762C154.71 10.8978 155.228 11.1223 155.702 11.3478C156.175 11.5733 156.58 11.8318 156.917 12.1186C157.253 12.4073 157.518 12.7455 157.71 13.1323C157.903 13.5172 158 13.9838 158 14.5262C158 15.1132 157.894 15.6216 157.686 16.0531C157.476 16.4837 157.183 16.8434 156.811 17.1311C156.434 17.4197 155.982 17.6355 155.446 17.7784C154.91 17.9213 154.326 17.9942 153.687 17.9942C153.334 17.9942 152.964 17.9747 152.578 17.9358C152.193 17.8979 151.81 17.8357 151.428 17.7531C151.047 17.6715 150.677 17.5636 150.314 17.4304C149.949 17.2973 149.612 17.1369 149.304 16.9503C149.215 16.8939 149.162 16.8346 149.147 16.7675C149.13 16.7024 149.151 16.5955 149.206 16.4536L149.768 15.1268C149.824 14.9927 149.884 14.915 149.95 14.8936C150.016 14.8722 150.11 14.8877 150.231 14.9441C150.453 15.0326 150.694 15.1259 150.96 15.2182C151.223 15.3125 151.497 15.3951 151.779 15.467C152.059 15.539 152.346 15.6002 152.639 15.6498C152.931 15.7013 153.221 15.7246 153.506 15.7246C153.848 15.7246 154.134 15.6916 154.367 15.6245C154.597 15.5584 154.786 15.4729 154.929 15.3659C155.072 15.2619 155.172 15.1405 155.227 15.0005C155.283 14.8615 155.31 14.7157 155.31 14.5612C155.31 14.3959 155.279 14.2462 155.218 14.1131C155.157 13.9799 155.059 13.8497 154.921 13.7243C154.782 13.597 154.594 13.4735 154.359 13.3578C154.121 13.2432 153.826 13.1168 153.474 12.9856C152.889 12.763 152.361 12.5375 151.885 12.3042C151.413 12.0729 151.004 11.8144 150.662 11.5335C150.32 11.2506 150.057 10.9367 149.876 10.5858C149.695 10.2407 149.603 9.83444 149.603 9.36984ZM146.262 11.4606C146.569 11.583 146.839 11.7453 147.064 11.9504C147.29 12.1555 147.475 12.381 147.617 12.6298C147.759 12.8796 147.867 13.1479 147.931 13.4346C147.997 13.7233 148.032 14.0062 148.032 14.2812C148.032 14.8129 147.93 15.295 147.727 15.7246C147.522 16.1562 147.24 16.5275 146.884 16.8385C146.527 17.1476 146.106 17.3877 145.626 17.5597C145.148 17.7308 144.632 17.8163 144.08 17.8163H139.93C139.534 17.8163 139.268 17.7376 139.138 17.5772C139.004 17.4168 138.939 17.1592 138.939 16.8054V7.21205C138.939 6.85826 139.004 6.59679 139.138 6.43156C139.269 6.26438 139.534 6.18273 139.93 6.18273H143.981C144.479 6.18273 144.943 6.23814 145.378 6.34797C145.813 6.4578 146.191 6.63276 146.511 6.86992C146.83 7.10903 147.083 7.41422 147.264 7.78163C147.446 8.1539 147.536 8.59809 147.536 9.11809C147.536 9.5827 147.417 10.0181 147.178 10.4225C146.943 10.8259 146.635 11.133 146.262 11.3429V11.4606ZM141.45 10.5819H143.698C143.831 10.5819 143.971 10.5644 144.122 10.5323C144.27 10.4993 144.404 10.441 144.525 10.3574C144.647 10.2757 144.747 10.16 144.825 10.0133C144.902 9.86457 144.94 9.67601 144.94 9.44468C144.94 9.11518 144.836 8.85761 144.626 8.67002C144.416 8.4834 144.135 8.39009 143.785 8.39009H141.453V10.5819H141.45ZM145.437 14.117C145.437 13.6747 145.3 13.3161 145.03 13.039C144.762 12.763 144.362 12.625 143.833 12.625H141.452V15.5953H143.833C144.141 15.5953 144.4 15.5487 144.611 15.4534C144.82 15.3591 144.985 15.2396 145.106 15.0967C145.227 14.9538 145.313 14.7925 145.364 14.6166C145.41 14.4377 145.437 14.2715 145.437 14.117ZM134.011 15.3941H130.225L129.58 17.5023C129.546 17.6112 129.499 17.6929 129.439 17.7434C129.378 17.7939 129.27 17.8173 129.117 17.8173H127.181C127.06 17.8173 126.987 17.7842 126.96 17.7162C126.934 17.6511 126.928 17.5743 126.952 17.4839L130.39 7.07695C130.446 6.8913 130.507 6.73676 130.579 6.62109C130.651 6.50543 130.734 6.41406 130.829 6.34797C130.922 6.28285 131.033 6.23522 131.16 6.20606C131.285 6.17884 131.432 6.16426 131.597 6.16426H132.589C132.774 6.16426 132.935 6.17301 133.068 6.18953C133.201 6.20606 133.316 6.24785 133.413 6.31297C133.514 6.37907 133.598 6.47432 133.671 6.59582C133.743 6.71732 133.812 6.87672 133.878 7.07598L137.317 17.4829C137.34 17.549 137.34 17.6229 137.317 17.6997C137.297 17.7764 137.224 17.8153 137.102 17.8153H135.135C135.014 17.8153 134.912 17.8017 134.831 17.7735C134.748 17.7473 134.69 17.6724 134.657 17.5509L134.011 15.3941ZM130.819 13.354H133.415L132.788 11.2389L132.176 8.85664H132.076L131.449 11.2389L130.819 13.354ZM120.309 17.5529C119.917 17.375 119.605 17.1427 119.374 16.855C119.143 16.5673 118.984 16.2407 118.896 15.8762C118.807 15.5098 118.763 15.1395 118.763 14.7633V6.5307C118.763 6.39754 118.791 6.30714 118.852 6.25757C118.913 6.20703 119.011 6.18371 119.143 6.18371H120.896C121.062 6.18371 121.169 6.20412 121.219 6.24883C121.268 6.29257 121.292 6.38684 121.292 6.5307V14.5796C121.292 15.0005 121.394 15.2833 121.598 15.4262C121.803 15.5691 122.069 15.643 122.4 15.643H125.833C125.954 15.643 126.037 15.6624 126.08 15.7023C126.125 15.7402 126.192 15.8315 126.146 15.9929L125.687 17.4703C125.609 17.7327 125.583 17.8182 125.374 17.8182H121.821C121.205 17.8182 120.701 17.7298 120.309 17.5529Z" fill="white"/>
</svg>
